<svg xmlns="http://www.w3.org/2000/svg" width="4344" height="1362" viewBox="0 0 1448 454">
  <defs>
    <style>
      .cls-1 {
        fill: #1d1d1b;
      }

      .cls-1, .cls-3, .cls-4, .cls-5, .cls-6 {
        fill-rule: evenodd;
      }

      .cls-2 {
        fill: none;
        stroke: #1d1d1b;
        stroke-width: 16px;
      }

      .cls-3 {
        fill: #fffc01;
      }

      .cls-4 {
        fill: #ff008c;
      }

      .cls-5 {
        fill: #00b3ff;
      }

      .cls-6 {
        fill: #894cae;
      }
    </style>
  </defs>
  <path class="cls-1" d="M1118.05,388.9c0-4.531,25.9-4.207,25.9,0s-10.36,12.945-12.95,12.945S1118.05,393.434,1118.05,388.9Z"/>
  <circle class="cls-2" cx="209.141" cy="248.797" r="204.141"/>
  <path class="cls-1" d="M49.989,124.506A225.28,225.28,0,0,1,29.744,75.018c-7.666-28.53-9.661-62.824,4.5-70.858,30.53-17.32,138.341,50.613,138.341,50.613l-59.611,21.37S55.482,12.038,39.866,23.281c-5.286,3.806-6.845,24.334-2.249,43.864,5.862,24.915,19.12,49.488,19.12,49.488Z"/>
  <path id="Shape_1_copy" data-name="Shape 1 copy" class="cls-1" d="M369.121,124.506a227.041,227.041,0,0,0,20.2-49.7c7.648-28.652,9.638-63.093-4.488-71.161C354.371-13.748,246.815,54.475,246.815,54.475l59.47,21.461s57.355-64.38,72.934-53.088c5.274,3.822,6.829,24.438,2.244,44.052-5.848,25.022-19.075,49.7-19.075,49.7Z"/>
  <path class="cls-1" d="M330,50s-11,16.333,9,41,34,4,34,4l-7,26L328,95,302,73Z"/>
  <path id="Shape_25_copy_3" data-name="Shape 25 copy 3" class="cls-1" d="M88,50s11,16.333-9,41-34,4-34,4l7,26L90,95l26-22Z"/>
  <path id="Shape_2_copy" data-name="Shape 2 copy" class="cls-1" d="M235.037,238.392c-4.956-6.187-13.254-63.055,32.585-88.709,59.295-33.185,114.609-1.123,114.609-1.123S420.6,221.7,406.951,285.554c-14.416,67.425-80.9,125.766-80.9,125.766l-47.192,5.614s86.706-86.118,65.17-160.575C329.137,204.875,239.993,244.579,235.037,238.392Zm55.643-56.525a14.622,14.622,0,1,1-14.622,14.621A14.621,14.621,0,0,1,290.68,181.867Z"/>
  <path id="Shape_2_copy_2" data-name="Shape 2 copy 2" class="cls-1" d="M185.487,238.392c4.956-6.187,13.254-63.055-32.585-88.709C93.607,116.5,38.293,148.56,38.293,148.56S-0.08,221.7,13.573,285.554C21.252,321.466,39.693,358.685,59,382c16.942,20.459,35.474,29.32,35.474,29.32l47.192,5.614S54.96,330.816,76.5,256.359C91.387,204.875,180.531,244.579,185.487,238.392Zm-55.643-56.525a14.622,14.622,0,1,0,14.622,14.621A14.621,14.621,0,0,0,129.844,181.867Z"/>
  <path class="cls-3" d="M312.049,279.718s23.508-13.6,48.363-22.494c20.212-7.237,42.74-10.123,42.74-10.123a107.884,107.884,0,0,1-1.125,35.991c-6.19,29-20.245,64.109-20.245,64.109Z"/>
  <path class="cls-3" d="M258.063,323.582L317,275l69,68-54.83,60.438Z"/>
  <path class="cls-4" d="M206.325,365.2L274,307l78,80-86.064,45.68Z"/>
  <path class="cls-5" d="M141,394l68-23,63,66-87,8Z"/>
  <path class="cls-5" d="M91.6,391.066H147.84l33.742,48.363s-35.431-6.124-59.611-19.121A80.9,80.9,0,0,1,91.6,391.066Z"/>
  <path class="cls-1" d="M183.831,284.217c4.5-7.123,48.363-7.5,52.862,0s-6,25.494-25.869,25.869S179.332,291.34,183.831,284.217Z"/>
  <path class="cls-1" d="M63.486,379.818s70.96,13.567,113.6-6.748c56.143-26.75,95.529-84.564,156.336-112.472,37.215-17.081,76.481-21.37,76.481-21.37S413.476,291.6,388,343c-15.453,31.178-43.56,61.49-84,81C144.988,500.715,63.494,379.819,63.486,379.818ZM100.6,396.689s36.28,6.834,75.357-6.748C225.7,372.652,267.779,318.1,309.8,292.09c36.577-22.641,52.141-30.229,74.825-35.15,9.712-2.107,14.326,2.052,14.364,16.047,0.081,30.111-16.131,98.246-111.684,148.446-30.033,15.778-78.528,18.863-114.721,10.123C126.815,420.5,100.6,396.689,100.6,396.689Z"/>
  <path id="Shape_4_copy" data-name="Shape 4 copy" class="cls-1" d="M279,312s-8.746,18.254,23,50c25.477,25.477,43,21,43,21a196.25,196.25,0,0,0,14-14,56.592,56.592,0,0,0,7-10s-17.5,9.252-43-14c-29.278-26.7-22-47-22-47Z"/>
  <path id="Shape_4_copy_2" data-name="Shape 4 copy 2" class="cls-1" d="M209,370s-3.066,19.191,13,38c23.432,27.432,40,25,40,25l38-17s-21.152,12.834-50-15c-24.2-23.354-15-49-15-49Z"/>
  <path class="cls-1" d="M98,360s10.131,14.86,26,19c18.438,4.81,43-1,43-1s-35,20-37,20-32-18-32-18V360Z"/>
  <path class="cls-1" d="M332,238s5.88,9.118,4,15c-3.508,10.977-20,18-20,18l36-12-9-23Z"/>
  <path id="Shape_25_copy" data-name="Shape 25 copy" class="cls-1" d="M341,115s8.362,9.373,7,16c-1.6,7.806-11,4-11,4s3.5,11.5,13,11,16.333,4.333,17-4S341,115,341,115Z"/>
  <path id="Shape_25_copy_2" data-name="Shape 25 copy 2" class="cls-1" d="M74,115s-8.362,9.382-7,16.016c1.6,7.813,11,4,11,4s-3.5,11.511-13,11.01-16.333,4.338-17-4S74,115,74,115Z"/>
  <path id="Shape_4_copy_3" data-name="Shape 4 copy 3" class="cls-1" d="M129.844,392.19S83.152,392.152,96,405c13.019,13.019,54,31,54,31l56.325,1.179S166.588,430.588,152,416c-12.858-12.858-.786-33.932-0.786-33.932Z"/>
  <path id="Ink" class="cls-6" d="M533.027,243.677V134.234H492.064V243.677h40.963Zm45.806-43c0-10.944,13.446-10.944,13.446,0v43h38.462V198.962c0-60.038-90.369-60.038-90.369,0v44.715h38.461v-43Zm97.553,43V208.968l20.794,34.709h40.494l-27.517-43.934L734.7,155.966H694.209l-17.823,33.458V134.077H637.924v109.6h38.462Z"/>
  <path id="racc" class="cls-1" d="M545.674,263.785c-34.672,0-58.965,22.747-58.965,57.419v66.473h54.327V319a3.021,3.021,0,0,1,3.313-3.312h20.98v-51.9H545.674Zm87.671-3.754a63.823,63.823,0,1,0,0,127.646h7.729V334.9h-7.729a11.044,11.044,0,1,1,10.821-11.042v63.823h53V323.854A63.854,63.854,0,0,0,633.345,260.031Zm133.383,0.221a65.59,65.59,0,1,0,65.59,67.135H777.77a11.02,11.02,0,0,1-11.042,9.717,11.263,11.263,0,1,1,0-22.525A11.02,11.02,0,0,1,777.77,324.3h54.548A65.716,65.716,0,0,0,766.728,260.252Zm135.15,0a65.59,65.59,0,1,0,65.59,67.135H912.92a11.02,11.02,0,0,1-11.042,9.717,11.263,11.263,0,1,1,0-22.525A11.02,11.02,0,0,1,912.92,324.3h54.548A65.716,65.716,0,0,0,901.878,260.252Z"/>
  <path id="n" class="cls-1" d="M1349.82,326.946c0-15.459,18.99-15.459,18.99,0v60.731h54.32V324.516c0-84.8-127.64-84.8-127.64,0v63.161h54.33V326.946Z"/>
  <path id="o" class="cls-6" d="M1062.86,314.358a11.263,11.263,0,1,1-11.27,11.263A11.31,11.31,0,0,1,1062.86,314.358Zm0,76.852a65.59,65.59,0,1,0-65.592-65.589A65.6,65.6,0,0,0,1062.86,391.21Z"/>
  <path class="cls-6" d="M1018,279l-47,45,45,47Z"/>
  <path id="o-2" data-name="o" class="cls-6" d="M1199.09,314.238a11.242,11.242,0,1,0,11.27,11.242A11.3,11.3,0,0,0,1199.09,314.238Zm0,76.709a65.467,65.467,0,1,1,65.63-65.467A65.559,65.559,0,0,1,1199.09,390.947Z"/>
  <path id="Shape_22_copy" data-name="Shape 22 copy" class="cls-6" d="M1243.97,278.946L1291,323.862l-45.03,46.913Z"/>
</svg>
